<svg width="512" height="512" viewBox="0 0 512 512" xmlns="http://www.w3.org/2000/svg">
  <defs>
    <linearGradient id="bg512" x1="0%" y1="0%" x2="100%" y2="100%">
      <stop offset="0%" style="stop-color:#FFF8F0;stop-opacity:1" />
      <stop offset="100%" style="stop-color:#FAE8BA;stop-opacity:1" />
    </linearGradient>
  </defs>
  
  <!-- Background -->
  <rect width="512" height="512" rx="80" fill="url(#bg512)" stroke="#D4B896" stroke-width="8"/>
  
  <!-- Main decorative circle -->
  <circle cx="256" cy="256" r="180" fill="#D4B896" opacity="0.2"/>
  
  <!-- Book/Learning symbol - larger -->
  <rect x="160" y="190" width="192" height="132" rx="8" fill="#5D4E37" opacity="0.9"/>
  <rect x="170" y="200" width="172" height="112" rx="4" fill="#FFF8F0"/>
  
  <!-- Text lines representing verb forms - larger -->
  <rect x="190" y="220" width="132" height="8" rx="4" fill="#8B4513"/>
  <rect x="190" y="240" width="108" height="8" rx="4" fill="#8B4513"/>
  <rect x="190" y="260" width="120" height="8" rx="4" fill="#8B4513"/>
  <rect x="190" y="280" width="96" height="8" rx="4" fill="#8B4513"/>
  
  <!-- Timer/clock symbol - larger -->
  <circle cx="380" cy="140" r="40" fill="#C7A876" stroke="#5D4E37" stroke-width="6"/>
  <line x1="380" y1="110" x2="380" y2="140" stroke="#5D4E37" stroke-width="6" stroke-linecap="round"/>
  <line x1="380" y1="140" x2="400" y2="155" stroke="#5D4E37" stroke-width="6" stroke-linecap="round"/>
  
  <!-- Trophy/achievement symbol -->
  <path d="M120 360 Q120 340 140 340 L180 340 Q200 340 200 360 L200 380 Q200 400 180 400 L140 400 Q120 400 120 380 Z" fill="#E8D7C5"/>
  <rect x="145" y="395" width="30" height="20" fill="#C7A876"/>
  <rect x="140" y="410" width="40" height="8" rx="4" fill="#8B4513"/>
  
  <!-- Decorative elements -->
  <circle cx="100" cy="100" r="20" fill="#E8D7C5" opacity="0.6"/>
  <circle cx="412" cy="412" r="16" fill="#E8D7C5" opacity="0.6"/>
  <circle cx="100" cy="412" r="12" fill="#C7A876" opacity="0.5"/>
  <circle cx="412" cy="100" r="14" fill="#D4B896" opacity="0.4"/>
  
  <!-- Stats/graph elements -->
  <rect x="80" y="200" width="12" height="40" rx="6" fill="#C7A876" opacity="0.7"/>
  <rect x="100" y="180" width="12" height="60" rx="6" fill="#C7A876" opacity="0.7"/>
  <rect x="120" y="160" width="12" height="80" rx="6" fill="#C7A876" opacity="0.7"/>
  
  <!-- Text "IV" for Irregular Verbs -->
  <text x="256" y="380" font-family="Arial, sans-serif" font-size="48" font-weight="bold" text-anchor="middle" fill="#5D4E37">IV</text>
</svg>
