<svg width="192" height="192" viewBox="0 0 192 192" xmlns="http://www.w3.org/2000/svg">
  <defs>
    <linearGradient id="bg" x1="0%" y1="0%" x2="100%" y2="100%">
      <stop offset="0%" style="stop-color:#FFF8F0;stop-opacity:1" />
      <stop offset="100%" style="stop-color:#FAE8BA;stop-opacity:1" />
    </linearGradient>
  </defs>
  
  <!-- Background -->
  <rect width="192" height="192" rx="32" fill="url(#bg)" stroke="#D4B896" stroke-width="4"/>
  
  <!-- Main icon content -->
  <circle cx="96" cy="96" r="70" fill="#D4B896" opacity="0.3"/>
  
  <!-- Book/Learning symbol -->
  <rect x="60" y="70" width="72" height="52" rx="4" fill="#5D4E37" opacity="0.8"/>
  <rect x="64" y="74" width="64" height="44" rx="2" fill="#FFF8F0"/>
  
  <!-- Text lines representing verb forms -->
  <rect x="72" y="82" width="48" height="3" rx="1.5" fill="#8B4513"/>
  <rect x="72" y="90" width="40" height="3" rx="1.5" fill="#8B4513"/>
  <rect x="72" y="98" width="44" height="3" rx="1.5" fill="#8B4513"/>
  <rect x="72" y="106" width="36" height="3" rx="1.5" fill="#8B4513"/>
  
  <!-- Timer/clock symbol -->
  <circle cx="140" cy="60" r="16" fill="#C7A876" stroke="#5D4E37" stroke-width="2"/>
  <line x1="140" y1="52" x2="140" y2="60" stroke="#5D4E37" stroke-width="2" stroke-linecap="round"/>
  <line x1="140" y1="60" x2="146" y2="64" stroke="#5D4E37" stroke-width="2" stroke-linecap="round"/>
  
  <!-- Decorative elements -->
  <circle cx="40" cy="40" r="8" fill="#E8D7C5" opacity="0.6"/>
  <circle cx="152" cy="152" r="6" fill="#E8D7C5" opacity="0.6"/>
  <circle cx="40" cy="152" r="5" fill="#C7A876" opacity="0.5"/>
</svg>
